STARTFONT 2.3
FONT -FontForge-Permanent Marker-Book-R-Normal--10-100-72-72-P-57-ISO10646-1
SIZE 10 72 72  4
FONTBOUNDINGBOX 16 16 -3 -4
COMMENT "Generated by fontforge, http://fontforge.sourceforge.net"
COMMENT "Copyright (c) 2010 by Font Diner, Inc. All rights reserved."
STARTPROPERTIES 40
FOUNDRY "FontForge"
FAMILY_NAME "Permanent Marker"
WEIGHT_NAME "Book"
SLANT "R"
SETWIDTH_NAME "Normal"
ADD_STYLE_NAME ""
PIXEL_SIZE 10
POINT_SIZE 100
RESOLUTION_X 72
RESOLUTION_Y 72
SPACING "P"
AVERAGE_WIDTH 57
CHARSET_REGISTRY "ISO10646"
CHARSET_ENCODING "1"
FONTNAME_REGISTRY ""
CHARSET_COLLECTIONS "ISO10646-1"
BITS_PER_PIXEL 4
FONT_NAME "PermanentMarker-Regular"
FACE_NAME "Permanent Marker Regular"
COPYRIGHT "Copyright (c) 2010 by Font Diner, Inc. All rights reserved."
FONT_VERSION "1.001"
FONT_ASCENT 8
FONT_DESCENT 2
UNDERLINE_POSITION -1
UNDERLINE_THICKNESS 1
X_HEIGHT 5
CAP_HEIGHT 7
RAW_ASCENT 799
RAW_DESCENT 200
NORM_SPACE 4
RELATIVE_WEIGHT 40
RELATIVE_SETWIDTH 50
SUPERSCRIPT_X 0
SUPERSCRIPT_Y 4
SUPERSCRIPT_SIZE 6
SUBSCRIPT_X 0
SUBSCRIPT_Y 1
SUBSCRIPT_SIZE 6
AVG_LOWERCASE_WIDTH 56
AVG_UPPERCASE_WIDTH 67
ENDPROPERTIES
CHARS 230
STARTCHAR space
ENCODING 32
SWIDTH 370 0
DWIDTH 4 0
BBX 1 1 0 0
BITMAP
00
ENDCHAR
STARTCHAR exclam
ENCODING 33
SWIDTH 260 0
DWIDTH 3 0
BBX 3 9 0 -1
BITMAP
0120
0990
0D90
1F60
4F30
2900
5400
DA00
2100
ENDCHAR
STARTCHAR quotedbl
ENCODING 34
SWIDTH 492 0
DWIDTH 5 0
BBX 6 6 0 2
BITMAP
023140
0AE5F3
0EAAD0
2F6E90
2F2F50
030300
ENDCHAR
STARTCHAR numbersign
ENCODING 35
SWIDTH 703 0
DWIDTH 7 0
BBX 8 8 0 0
BITMAP
00010100
004B0D20
02AE7F50
3FFEFEC1
05F4D800
9FFFFF40
4F7AC000
3E2C6000
ENDCHAR
STARTCHAR dollar
ENCODING 36
SWIDTH 493 0
DWIDTH 5 0
BBX 6 9 0 -1
BITMAP
000200
001E10
05BFE4
9FD542
49BA00
005E10
4EF500
1CA000
011000
ENDCHAR
STARTCHAR percent
ENCODING 37
SWIDTH 643 0
DWIDTH 6 0
BBX 7 8 0 0
BITMAP
00100000
07D00770
5DE47E30
5FC9E300
006E4100
07D6E600
5E2DCC00
890AB500
ENDCHAR
STARTCHAR ampersand
ENCODING 38
SWIDTH 599 0
DWIDTH 6 0
BBX 6 6 0 0
BITMAP
000500
165F30
BEFF93
9FFEB7
00E900
008300
ENDCHAR
STARTCHAR quotesingle
ENCODING 39
SWIDTH 265 0
DWIDTH 3 0
BBX 3 6 0 2
BITMAP
0230
0AE0
0EA0
2F60
2F20
0300
ENDCHAR
STARTCHAR parenleft
ENCODING 40
SWIDTH 361 0
DWIDTH 4 0
BBX 5 11 0 -2
BITMAP
000140
002DA0
01DE40
0AF300
2F9000
5F3000
9E0000
AD0000
9F0000
4F2000
072000
ENDCHAR
STARTCHAR parenright
ENCODING 41
SWIDTH 361 0
DWIDTH 4 0
BBX 6 11 -2 -2
BITMAP
000400
000A90
0009F1
0006F3
0006F2
0008E0
000DB0
006F50
05FB00
1FC100
291000
ENDCHAR
STARTCHAR asterisk
ENCODING 42
SWIDTH 673 0
DWIDTH 7 0
BBX 7 6 0 2
BITMAP
00110200
00DAB900
15BFF940
2EEFFA70
01DBE600
02824300
ENDCHAR
STARTCHAR plus
ENCODING 43
SWIDTH 579 0
DWIDTH 6 0
BBX 6 6 0 0
BITMAP
001100
00A900
24EC30
CFFED2
17F300
05A000
ENDCHAR
STARTCHAR comma
ENCODING 44
SWIDTH 204 0
DWIDTH 2 0
BBX 3 4 -1 -2
BITMAP
1400
6F30
CD00
8400
ENDCHAR
STARTCHAR hyphen
ENCODING 45
SWIDTH 609 0
DWIDTH 6 0
BBX 6 3 0 1
BITMAP
245640
AFFED3
110000
ENDCHAR
STARTCHAR period
ENCODING 46
SWIDTH 228 0
DWIDTH 2 0
BBX 3 3 -1 -1
BITMAP
0620
2F50
0300
ENDCHAR
STARTCHAR slash
ENCODING 47
SWIDTH 401 0
DWIDTH 4 0
BBX 6 8 -1 -1
BITMAP
00005B
0002E8
001CA0
00AC10
08E200
3F4000
4E0000
010000
ENDCHAR
STARTCHAR zero
ENCODING 48
SWIDTH 686 0
DWIDTH 7 0
BBX 7 9 0 -1
BITMAP
00016000
002DF500
02EFF600
0DF7BC00
7F704F30
BE006F60
CE9CFF40
5FFFC400
01310000
ENDCHAR
STARTCHAR one
ENCODING 49
SWIDTH 322 0
DWIDTH 3 0
BBX 3 8 0 0
BITMAP
0300
1F40
0F90
0DA0
1F90
6F60
AF10
AB00
ENDCHAR
STARTCHAR two
ENCODING 50
SWIDTH 650 0
DWIDTH 7 0
BBX 7 8 0 0
BITMAP
01331000
4FFFE400
2BA9FE00
002DF800
03EF8000
2EE51440
6FEEFFE0
3DFCA730
ENDCHAR
STARTCHAR three
ENCODING 51
SWIDTH 561 0
DWIDTH 6 0
BBX 7 8 -1 0
BITMAP
00012200
09DFFF30
1FFFFF50
02BFE400
00AFF800
0003CF20
07BDFE10
09EC8200
ENDCHAR
STARTCHAR four
ENCODING 52
SWIDTH 582 0
DWIDTH 6 0
BBX 6 9 0 -1
BITMAP
000220
2207A0
7B09B0
5F7DE8
2EFFE6
029F10
009B00
007E10
000400
ENDCHAR
STARTCHAR five
ENCODING 53
SWIDTH 580 0
DWIDTH 6 0
BBX 7 8 0 0
BITMAP
00100000
05EB8920
5FFFFF70
7FF73100
2CFE2000
003DB000
5CCFD000
1BDC4000
ENDCHAR
STARTCHAR six
ENCODING 54
SWIDTH 500 0
DWIDTH 5 0
BBX 6 9 -1 -1
BITMAP
000120
003EB0
00BE60
03F600
0AE6A2
0EBFF9
1FEFF7
0DFC60
001000
ENDCHAR
STARTCHAR seven
ENCODING 55
SWIDTH 576 0
DWIDTH 6 0
BBX 7 8 0 0
BITMAP
13200000
CFFE5000
89AEE000
0008E000
1ACFFF20
3FFF8500
02F80000
04E10000
ENDCHAR
STARTCHAR eight
ENCODING 56
SWIDTH 537 0
DWIDTH 5 0
BBX 6 9 0 -1
BITMAP
004210
1CFE88
5F7ECC
4F9DF5
0DFD30
2FBD00
3FAF20
0AFB00
001000
ENDCHAR
STARTCHAR nine
ENCODING 57
SWIDTH 529 0
DWIDTH 5 0
BBX 6 9 0 -1
BITMAP
001300
06EF70
4FCBF0
9FFFF4
3A9DB0
000D60
001F30
003E10
000100
ENDCHAR
STARTCHAR colon
ENCODING 58
SWIDTH 241 0
DWIDTH 2 0
BBX 3 6 -1 -1
BITMAP
0220
0AE0
0340
0620
2F50
0300
ENDCHAR
STARTCHAR semicolon
ENCODING 59
SWIDTH 245 0
DWIDTH 2 0
BBX 3 7 -1 -2
BITMAP
0230
09E0
0350
0410
1F70
7F30
5700
ENDCHAR
STARTCHAR less
ENCODING 60
SWIDTH 625 0
DWIDTH 6 0
BBX 7 5 0 0
BITMAP
00017A10
149EE800
DFE61000
3AFE7000
0026A200
ENDCHAR
STARTCHAR equal
ENCODING 61
SWIDTH 586 0
DWIDTH 6 0
BBX 6 4 0 1
BITMAP
156761
7EDCB4
357750
DDCB80
ENDCHAR
STARTCHAR greater
ENCODING 62
SWIDTH 634 0
DWIDTH 6 0
BBX 7 5 -1 0
BITMAP
05951000
00AFE910
0028FFA0
2AFD8310
3A500000
ENDCHAR
STARTCHAR question
ENCODING 63
SWIDTH 556 0
DWIDTH 6 0
BBX 7 9 0 -1
BITMAP
02541000
1EFFFD10
0868FF20
003CFA00
04FD5000
07900000
26000000
6F200000
02000000
ENDCHAR
STARTCHAR at
ENCODING 64
SWIDTH 732 0
DWIDTH 7 0
BBX 9 9 -1 -1
BITMAP
0000251000
0000AFC000
001AD4C700
02DC6C7E10
0CD9DE3F10
1F4ECEBA00
0D64765000
02BFEED000
0001332000
ENDCHAR
STARTCHAR A
ENCODING 65
SWIDTH 702 0
DWIDTH 7 0
BBX 8 8 -1 0
BITMAP
00001100
0001AE20
002EFF50
009FBF80
02FD3FD6
08FEFFF8
1EC46AF4
1E600CC1
ENDCHAR
STARTCHAR B
ENCODING 66
SWIDTH 686 0
DWIDTH 7 0
BBX 8 9 -1 -1
BITMAP
00024400
19EFFFB0
1EFA5EF2
028FEF80
00BFFF80
01FB03F6
06FABFF5
05FFEA40
00221000
ENDCHAR
STARTCHAR C
ENCODING 67
SWIDTH 611 0
DWIDTH 6 0
BBX 6 8 0 0
BITMAP
000020
002AFA
07EFF8
7FF810
EE3000
E80000
9FDBB4
07CFE6
ENDCHAR
STARTCHAR D
ENCODING 68
SWIDTH 588 0
DWIDTH 6 0
BBX 6 8 0 0
BITMAP
110000
5E9300
6ECF60
4E04E4
4F00AA
8E5CF6
CFFE60
AD7100
ENDCHAR
STARTCHAR E
ENCODING 69
SWIDTH 626 0
DWIDTH 6 0
BBX 7 9 0 -1
BITMAP
00001200
06ADFF60
4FFEA610
0ED76000
4FFFE300
BF541000
DEABEA00
7FFEC500
00100000
ENDCHAR
STARTCHAR F
ENCODING 70
SWIDTH 575 0
DWIDTH 6 0
BBX 8 8 -1 0
BITMAP
00000351
015AEFFE
05FFA532
00CF1000
1BEEBD40
1EFEC910
0AD00000
09900000
ENDCHAR
STARTCHAR G
ENCODING 71
SWIDTH 789 0
DWIDTH 8 0
BBX 9 8 0 0
BITMAP
0000110000
0005DE2000
01AFFA1000
0BFC330000
8FB11FD400
ED102DFF30
CDBEFFF900
4DFDA51000
ENDCHAR
STARTCHAR H
ENCODING 72
SWIDTH 695 0
DWIDTH 7 0
BBX 7 9 0 -1
BITMAP
00000200
0B100D30
1F901FA0
3F902FB0
5F86BF80
AFFFFF40
EFA3DF00
DD009A00
10000000
ENDCHAR
STARTCHAR I
ENCODING 73
SWIDTH 515 0
DWIDTH 5 0
BBX 8 9 -1 -1
BITMAP
00023420
00DFFFF4
0059F730
0007F100
000CB000
003F7000
27CFB200
3FDCA300
01000000
ENDCHAR
STARTCHAR J
ENCODING 74
SWIDTH 668 0
DWIDTH 7 0
BBX 9 8 -1 0
BITMAP
0000011100
03BEFFFFA0
02EB9FC770
00002F8000
00006F4000
0000BE0000
2DABF90000
0ADEA10000
ENDCHAR
STARTCHAR K
ENCODING 75
SWIDTH 776 0
DWIDTH 8 0
BBX 8 8 0 0
BITMAP
00200000
03F804A2
0AF69FF5
1EFCFD40
5FFFB100
9FFFD532
CF93DFFC
9C100573
ENDCHAR
STARTCHAR L
ENCODING 76
SWIDTH 632 0
DWIDTH 6 0
BBX 7 9 0 -1
BITMAP
01200000
06F50000
0BF20000
2FB00000
7F600000
CF100000
DFCFFA00
8FEBAA10
01000000
ENDCHAR
STARTCHAR M
ENCODING 77
SWIDTH 973 0
DWIDTH 10 0
BBX 10 9 0 -1
BITMAP
0012000000
00BE4006E3
05FF906FF8
0DFFCAFFF6
4FDFFFDBF4
BF56B71AF1
ED00000CD0
B700000850
1000000000
ENDCHAR
STARTCHAR N
ENCODING 78
SWIDTH 684 0
DWIDTH 7 0
BBX 8 8 -1 0
BITMAP
00010010
000E80AB
006FD0EE
00DFA2F9
06FF97F6
0DFFDFF3
1FE4FFC0
09805A20
ENDCHAR
STARTCHAR O
ENCODING 79
SWIDTH 744 0
DWIDTH 7 0
BBX 8 9 0 -1
BITMAP
00004100
0009FB00
01BFFD00
0BFA7F50
6F900AC0
CD001BF1
CEABFFC0
4EFFC600
00100000
ENDCHAR
STARTCHAR P
ENCODING 80
SWIDTH 639 0
DWIDTH 6 0
BBX 7 9 0 -1
BITMAP
00044100
01CFFE20
07FBBF80
3ED6BFA0
8FFFFD30
6FC84000
7F400000
7F100000
01000000
ENDCHAR
STARTCHAR Q
ENCODING 81
SWIDTH 744 0
DWIDTH 7 0
BBX 8 9 0 -1
BITMAP
00014000
0008FC00
007FFF60
09FC29E1
8FB675F3
EC04FFE1
EBAEFF60
7FFC8E80
01000540
ENDCHAR
STARTCHAR R
ENCODING 82
SWIDTH 646 0
DWIDTH 6 0
BBX 7 9 0 -1
BITMAP
00031000
006FC100
06FDF800
3FC3ED00
7FEFF700
AFF92000
CEFE8510
A84BFF60
00002510
ENDCHAR
STARTCHAR S
ENCODING 83
SWIDTH 576 0
DWIDTH 6 0
BBX 7 9 0 -1
BITMAP
00013300
05BFFF80
AFFA7860
CFFC2000
157CA000
0009E000
38DF8000
6FD60000
01000000
ENDCHAR
STARTCHAR T
ENCODING 84
SWIDTH 607 0
DWIDTH 6 0
BBX 8 9 0 -1
BITMAP
00012341
BCDFFFFA
ADDFB652
009F2000
01FB0000
06F40000
08D00000
05F20000
00200000
ENDCHAR
STARTCHAR U
ENCODING 85
SWIDTH 695 0
DWIDTH 7 0
BBX 8 8 0 0
BITMAP
00000010
040003C0
3F2007F2
5F600CF1
7F306FA0
7F79FD20
3FFFE300
0AEA2000
ENDCHAR
STARTCHAR V
ENCODING 86
SWIDTH 583 0
DWIDTH 6 0
BBX 7 8 0 0
BITMAP
01000210
5C003E70
4F51DF40
4F79F700
3FCFB000
1FFE2000
0DF70000
07E10000
ENDCHAR
STARTCHAR W
ENCODING 87
SWIDTH 994 0
DWIDTH 10 0
BBX 11 8 0 0
BITMAP
000000000100
07C004102E20
0EE02FA08F50
4F90BF90EE00
7F45FF66F800
AF5EFF9EF200
9FFF7AFF8000
2CC402EA0000
ENDCHAR
STARTCHAR X
ENCODING 88
SWIDTH 623 0
DWIDTH 6 0
BBX 8 9 -1 -1
BITMAP
00100000
02E502B8
01FF8EF8
005FFE40
008FF500
07FDED10
1FD17F70
1F401D60
02000000
ENDCHAR
STARTCHAR Y
ENCODING 89
SWIDTH 493 0
DWIDTH 5 0
BBX 6 9 0 -1
BITMAP
110022
6E23ED
4F6DF6
1FEF80
0AFD00
0BF400
4FA000
7F2000
030000
ENDCHAR
STARTCHAR Z
ENCODING 90
SWIDTH 664 0
DWIDTH 7 0
BBX 8 9 -1 -1
BITMAP
00022110
008FFFFB
00298FFB
0002CF90
007FF800
0AFD3020
1FF8AEE2
0CFFEB40
01540000
ENDCHAR
STARTCHAR bracketleft
ENCODING 91
SWIDTH 387 0
DWIDTH 4 0
BBX 8 11 -1 -2
BITMAP
000CEFFB
001FB775
004F3000
008E0000
00CA0000
01F70000
05F30000
0AE00000
0E911000
3FFFF300
19653000
ENDCHAR
STARTCHAR backslash
ENCODING 92
SWIDTH 352 0
DWIDTH 4 0
BBX 3 9 0 -1
BITMAP
2100
5D00
3F10
0F30
0D60
0A90
08B0
07C0
0020
ENDCHAR
STARTCHAR bracketright
ENCODING 93
SWIDTH 403 0
DWIDTH 4 0
BBX 8 12 -3 -2
BITMAP
00000100
005EFFD1
00297BF1
00000AC0
00000E80
00003F40
00007F10
0000CC00
0001F700
0016F300
9EFFD000
58542000
ENDCHAR
STARTCHAR asciicircum
ENCODING 94
SWIDTH 518 0
DWIDTH 5 0
BBX 5 7 0 1
BITMAP
000400
006F20
02EF50
0ADE70
7F3C80
E70680
200010
ENDCHAR
STARTCHAR underscore
ENCODING 95
SWIDTH 708 0
DWIDTH 7 0
BBX 8 3 -1 -1
BITMAP
01333310
DFFFFFFB
24322210
ENDCHAR
STARTCHAR grave
ENCODING 96
SWIDTH 754 0
DWIDTH 8 0
BBX 4 4 2 4
BITMAP
0400
1FB1
04EA
0025
ENDCHAR
STARTCHAR a
ENCODING 97
SWIDTH 581 0
DWIDTH 6 0
BBX 7 7 -1 -1
BITMAP
0003C300
007FF600
01ECC900
07FADF90
0DACBF30
1E308D10
01000100
ENDCHAR
STARTCHAR b
ENCODING 98
SWIDTH 573 0
DWIDTH 6 0
BBX 7 7 -1 -1
BITMAP
08CFF900
2EE6CF10
01DFF700
02FB8C10
07F4AF50
08FFD700
00230000
ENDCHAR
STARTCHAR c
ENCODING 99
SWIDTH 513 0
DWIDTH 5 0
BBX 5 7 0 -1
BITMAP
004C80
1AFF80
AF9100
F70000
CB7520
2BFF80
000100
ENDCHAR
STARTCHAR d
ENCODING 100
SWIDTH 497 0
DWIDTH 5 0
BBX 5 7 0 -1
BITMAP
6B5000
7CDA00
6A0980
7A2AB0
BEED20
BD6100
100000
ENDCHAR
STARTCHAR e
ENCODING 101
SWIDTH 521 0
DWIDTH 5 0
BBX 6 7 0 -1
BITMAP
059CE4
5FEA61
2FCA20
8EBA20
DB5760
AFFE80
021000
ENDCHAR
STARTCHAR f
ENCODING 102
SWIDTH 455 0
DWIDTH 5 0
BBX 7 8 -1 -1
BITMAP
00000100
015AEF90
07FD6420
01E72000
2FFFF500
0CB41000
0B500000
01000000
ENDCHAR
STARTCHAR g
ENCODING 103
SWIDTH 652 0
DWIDTH 7 0
BBX 7 6 0 0
BITMAP
0019C100
03DFA100
3ED36200
CD20CF70
DA7AEFA0
7FFC8400
ENDCHAR
STARTCHAR h
ENCODING 104
SWIDTH 582 0
DWIDTH 6 0
BBX 6 7 0 -1
BITMAP
0700A2
3F20D8
5F11F9
9FBEF6
DFBBF1
E906C0
100000
ENDCHAR
STARTCHAR i
ENCODING 105
SWIDTH 320 0
DWIDTH 3 0
BBX 3 7 0 -1
BITMAP
0850
0E90
2F60
5F20
6F00
3F10
0100
ENDCHAR
STARTCHAR j
ENCODING 106
SWIDTH 534 0
DWIDTH 5 0
BBX 8 6 -1 0
BITMAP
03ABCDC4
04C9DC74
0000D800
0002F400
175BD000
1CFE4000
ENDCHAR
STARTCHAR k
ENCODING 107
SWIDTH 645 0
DWIDTH 6 0
BBX 7 7 0 -1
BITMAP
06C02700
0DC6FE20
3FEFB100
8FFD0000
CF8DEC60
AA017A30
10000000
ENDCHAR
STARTCHAR l
ENCODING 108
SWIDTH 533 0
DWIDTH 5 0
BBX 6 7 0 -1
BITMAP
099000
0E9000
5F4000
AD0000
DC8960
AFECC1
020000
ENDCHAR
STARTCHAR m
ENCODING 109
SWIDTH 814 0
DWIDTH 8 0
BBX 8 7 0 -1
BITMAP
01D60087
09FD07FE
2FFFCFFC
8F9FE7CA
DB0200F7
C40000C2
10000000
ENDCHAR
STARTCHAR n
ENCODING 110
SWIDTH 564 0
DWIDTH 6 0
BBX 7 6 -1 0
BITMAP
004B1770
00BF3CB0
03FF1F70
0AFF7F40
1FCDFE10
0C53C400
ENDCHAR
STARTCHAR o
ENCODING 111
SWIDTH 628 0
DWIDTH 6 0
BBX 6 7 0 -1
BITMAP
002DB0
04EFE0
2EC3D6
AD107C
DA58EC
7FFE92
012000
ENDCHAR
STARTCHAR p
ENCODING 112
SWIDTH 524 0
DWIDTH 5 0
BBX 6 7 0 -1
BITMAP
03DFC1
0BD9E6
6FACF7
AFFC70
8E1000
AB0000
110000
ENDCHAR
STARTCHAR q
ENCODING 113
SWIDTH 625 0
DWIDTH 6 0
BBX 6 7 0 -1
BITMAP
001EA0
02CFF6
3ED35D
DD3DAE
F77EF8
AFFBD6
020043
ENDCHAR
STARTCHAR r
ENCODING 114
SWIDTH 541 0
DWIDTH 5 0
BBX 6 7 0 -1
BITMAP
00AC20
19EEA0
5F8CD0
9FFC40
CFD510
B7AFF5
000141
ENDCHAR
STARTCHAR s
ENCODING 115
SWIDTH 463 0
DWIDTH 5 0
BBX 6 7 0 -1
BITMAP
05AEF6
BFD775
AFF700
003E10
14BE10
7FC300
120000
ENDCHAR
STARTCHAR t
ENCODING 116
SWIDTH 479 0
DWIDTH 5 0
BBX 7 7 0 -1
BITMAP
89CDEF40
ACEC6510
02F50000
07E00000
0B800000
0A800000
00100000
ENDCHAR
STARTCHAR u
ENCODING 117
SWIDTH 584 0
DWIDTH 6 0
BBX 7 6 0 0
BITMAP
02001A00
4D004F10
6F10AE00
7E07F700
6FEF9000
1DE80000
ENDCHAR
STARTCHAR v
ENCODING 118
SWIDTH 485 0
DWIDTH 5 0
BBX 6 6 0 0
BITMAP
4800B7
4F18F4
4F6F80
2FFC00
0FF300
0A9000
ENDCHAR
STARTCHAR w
ENCODING 119
SWIDTH 825 0
DWIDTH 8 0
BBX 9 7 0 -1
BITMAP
0840210750
2F71D90EA0
6F28F75F40
9D3FF5CC00
BEEECFF500
4EB22E9000
0000010000
ENDCHAR
STARTCHAR x
ENCODING 120
SWIDTH 506 0
DWIDTH 5 0
BBX 7 7 -1 -1
BITMAP
04A10850
03FBCF60
009FD300
03EFB000
0DC5F600
1F20A800
02000000
ENDCHAR
STARTCHAR y
ENCODING 121
SWIDTH 400 0
DWIDTH 4 0
BBX 5 7 0 -1
BITMAP
6A08D0
5F6F80
2FFA00
0BE200
2F7000
7D0000
120000
ENDCHAR
STARTCHAR z
ENCODING 122
SWIDTH 547 0
DWIDTH 5 0
BBX 6 7 0 -1
BITMAP
0AEDD7
048DF8
01AF70
5EE500
ED58A1
EFFD80
252000
ENDCHAR
STARTCHAR braceleft
ENCODING 123
SWIDTH 448 0
DWIDTH 4 0
BBX 8 11 0 -2
BITMAP
001CEFFA
002FA774
006F1000
01BD0000
8FD50000
8FB10000
09F20000
0BC00000
1F811000
5FFFE100
19653000
ENDCHAR
STARTCHAR bar
ENCODING 124
SWIDTH 332 0
DWIDTH 3 0
BBX 4 9 0 -1
BITMAP
0020
00D3
04F2
08B0
0D60
3F10
AB00
E500
1000
ENDCHAR
STARTCHAR braceright
ENCODING 125
SWIDTH 481 0
DWIDTH 5 0
BBX 8 12 -3 -2
BITMAP
00000100
006EFFC0
00497CD0
00000CA0
00001F60
00005FA1
00000BF8
0000CF92
0003F600
0018F100
AEFFB000
67541000
ENDCHAR
STARTCHAR asciitilde
ENCODING 126
SWIDTH 581 0
DWIDTH 6 0
BBX 6 2 0 2
BITMAP
4DE5C5
B69D90
ENDCHAR
STARTCHAR uni00A0
ENCODING 160
SWIDTH 370 0
DWIDTH 4 0
BBX 1 1 0 0
BITMAP
00
ENDCHAR
STARTCHAR exclamdown
ENCODING 161
SWIDTH 260 0
DWIDTH 3 0
BBX 4 9 -1 -1
BITMAP
0041
01F7
0041
04B0
09D0
0CA0
0F60
1E30
0200
ENDCHAR
STARTCHAR cent
ENCODING 162
SWIDTH 488 0
DWIDTH 5 0
BBX 5 9 0 -1
BITMAP
000100
005B00
02CF80
4EE710
DA1000
B95400
2EFE40
0F5000
020000
ENDCHAR
STARTCHAR sterling
ENCODING 163
SWIDTH 586 0
DWIDTH 6 0
BBX 6 7 0 0
BITMAP
001652
01DEDB
28F611
BFFE80
2E7240
EFFFF1
243300
ENDCHAR
STARTCHAR currency
ENCODING 164
SWIDTH 509 0
DWIDTH 5 0
BBX 5 6 0 0
BITMAP
132120
3FEED0
4FCF20
9EAF30
CEDF10
800700
ENDCHAR
STARTCHAR yen
ENCODING 165
SWIDTH 563 0
DWIDTH 6 0
BBX 6 7 0 0
BITMAP
020021
0C73E9
0ACDD1
3AFF70
BFFEC2
1AE100
0C6000
ENDCHAR
STARTCHAR brokenbar
ENCODING 166
SWIDTH 301 0
DWIDTH 3 0
BBX 5 9 -1 -1
BITMAP
000200
001E10
006E00
00A900
001100
05A000
0C9000
1F3000
010000
ENDCHAR
STARTCHAR section
ENCODING 167
SWIDTH 630 0
DWIDTH 6 0
BBX 7 9 0 -1
BITMAP
037ACA00
1FFCAB10
1EF92000
2DFFF500
8F75ED00
2EFFF500
018EF400
79AEF600
8EDA6000
ENDCHAR
STARTCHAR dieresis
ENCODING 168
SWIDTH 754 0
DWIDTH 8 0
BBX 5 3 2 5
BITMAP
220400
BC1F70
320200
ENDCHAR
STARTCHAR copyright
ENCODING 169
SWIDTH 614 0
DWIDTH 6 0
BBX 7 7 0 1
BITMAP
00031000
04DA9300
2E599C00
99C61C10
B7A31D10
8769B700
08BC6000
ENDCHAR
STARTCHAR ordfeminine
ENCODING 170
SWIDTH 454 0
DWIDTH 5 0
BBX 5 5 0 2
BITMAP
004100
09F800
4FEC20
BFFF40
C47B00
ENDCHAR
STARTCHAR guillemotleft
ENCODING 171
SWIDTH 566 0
DWIDTH 6 0
BBX 6 6 0 -1
BITMAP
002011
07D2D4
BD8E80
D97E30
2C57C0
001010
ENDCHAR
STARTCHAR logicalnot
ENCODING 172
SWIDTH 698 0
DWIDTH 7 0
BBX 7 4 0 0
BITMAP
24565200
DFFEEF30
12007E00
0000A800
ENDCHAR
STARTCHAR sfthyphen
ENCODING 173
SWIDTH 608 0
DWIDTH 6 0
BBX 6 3 0 1
BITMAP
245640
AFFED3
110000
ENDCHAR
STARTCHAR registered
ENCODING 174
SWIDTH 624 0
DWIDTH 6 0
BBX 7 7 0 1
BITMAP
00021000
03DB9400
1E5C8D00
79BBBB30
A5FC2D10
6968F800
07AC7000
ENDCHAR
STARTCHAR macron
ENCODING 175
SWIDTH 754 0
DWIDTH 8 0
BBX 5 2 2 6
BITMAP
145400
5FED10
ENDCHAR
STARTCHAR degree
ENCODING 176
SWIDTH 284 0
DWIDTH 3 0
BBX 4 4 0 5
BITMAP
0010
03D4
1ECA
1DE6
ENDCHAR
STARTCHAR plusminus
ENCODING 177
SWIDTH 559 0
DWIDTH 6 0
BBX 7 8 -1 -1
BITMAP
0003A000
0009F000
06DFFE50
039FA410
002F4000
03585100
3FFEEA00
02000000
ENDCHAR
STARTCHAR twosuperior
ENCODING 178
SWIDTH 386 0
DWIDTH 4 0
BBX 5 5 0 3
BITMAP
011000
3FF800
09F600
4FED30
176300
ENDCHAR
STARTCHAR threesuperior
ENCODING 179
SWIDTH 366 0
DWIDTH 4 0
BBX 4 5 0 3
BITMAP
0010
3EFA
1AF8
07ED
0572
ENDCHAR
STARTCHAR acute
ENCODING 180
SWIDTH 754 0
DWIDTH 8 0
BBX 3 4 3 4
BITMAP
0230
2EB0
DC20
7100
ENDCHAR
STARTCHAR mu
ENCODING 181
SWIDTH 569 0
DWIDTH 6 0
BBX 7 7 -1 -1
BITMAP
00000210
02700860
05E00C80
08D07F20
0BFCF600
0FEE6000
1E100000
ENDCHAR
STARTCHAR paragraph
ENCODING 182
SWIDTH 729 0
DWIDTH 7 0
BBX 8 9 0 -1
BITMAP
00013671
06CFFFFB
5FECE9D1
4F7ABBA0
07FFDE70
003FCF90
005F7F10
008C4F40
00010300
ENDCHAR
STARTCHAR periodcentered
ENCODING 183
SWIDTH 226 0
DWIDTH 2 0
BBX 3 3 0 2
BITMAP
2500
8E10
0100
ENDCHAR
STARTCHAR cedilla
ENCODING 184
SWIDTH 754 0
DWIDTH 8 0
BBX 4 4 2 -3
BITMAP
0260
0AC2
029D
3EFA
ENDCHAR
STARTCHAR onesuperior
ENCODING 185
SWIDTH 206 0
DWIDTH 2 0
BBX 3 5 0 3
BITMAP
0100
0E20
0F30
4E10
2500
ENDCHAR
STARTCHAR ordmasculine
ENCODING 186
SWIDTH 445 0
DWIDTH 4 0
BBX 5 5 0 2
BITMAP
005200
09FA00
7FBF10
DDAF40
8FD800
ENDCHAR
STARTCHAR guillemotright
ENCODING 187
SWIDTH 595 0
DWIDTH 6 0
BBX 7 6 -1 -1
BITMAP
02011000
09A2E500
01CA5F30
07E8CC20
2D399000
01010000
ENDCHAR
STARTCHAR onequarter
ENCODING 188
SWIDTH 705 0
DWIDTH 7 0
BBX 7 9 0 -1
BITMAP
01000200
2E10A700
1F27E300
5D4F4000
37EA2B10
1DA8CF70
8D13DD30
A9008900
01001100
ENDCHAR
STARTCHAR onehalf
ENCODING 189
SWIDTH 750 0
DWIDTH 8 0
BBX 7 9 0 -1
BITMAP
01000200
2E10A700
1F27E300
5D4F4000
37EA9800
1DA3CF60
8D12EC50
A905FD90
01000000
ENDCHAR
STARTCHAR threequarters
ENCODING 190
SWIDTH 818 0
DWIDTH 8 0
BBX 8 9 0 -1
BITMAP
02320010
3FFB03E2
0AF52EA0
2DF9D900
155DB393
02D97CE7
0BA03DC3
1F300B70
01000110
ENDCHAR
STARTCHAR questiondown
ENCODING 191
SWIDTH 556 0
DWIDTH 6 0
BBX 6 9 -1 -1
BITMAP
000003
00008E
000026
0003C2
019FB0
3EF800
8FC785
6EFFF8
002440
ENDCHAR
STARTCHAR Agrave
ENCODING 192
SWIDTH 702 0
DWIDTH 7 0
BBX 8 11 -1 0
BITMAP
00004000
0001FB10
00004EA0
00001350
0001AE20
002EFF50
009FBF80
02FD3FD6
08FEFFF8
1EC46AF4
1E600CC1
ENDCHAR
STARTCHAR Aacute
ENCODING 193
SWIDTH 702 0
DWIDTH 7 0
BBX 8 11 -1 0
BITMAP
00000130
00002DD0
0000CD30
00007200
0001AE20
002EFF50
009FBF80
02FD3FD6
08FEFFF8
1EC46AF4
1E600CC1
ENDCHAR
STARTCHAR Acircumflex
ENCODING 194
SWIDTH 702 0
DWIDTH 7 0
BBX 8 10 -1 0
BITMAP
00004A20
0005FCD2
00067193
0001AE20
002EFF50
009FBF80
02FD3FD6
08FEFFF8
1EC46AF4
1E600CC1
ENDCHAR
STARTCHAR Atilde
ENCODING 195
SWIDTH 702 0
DWIDTH 7 0
BBX 9 10 -1 0
BITMAP
0000471510
0004EEED10
0003426200
0001AE2000
002EFF5000
009FBF8000
02FD3FD600
08FEFFF800
1EC46AF400
1E600CC100
ENDCHAR
STARTCHAR Adieresis
ENCODING 196
SWIDTH 702 0
DWIDTH 7 0
BBX 8 10 -1 0
BITMAP
00012031
0009E0F8
00023120
0001AE20
002EFF50
009FBF80
02FD3FD6
08FEFFF8
1EC46AF4
1E600CC1
ENDCHAR
STARTCHAR Aring
ENCODING 197
SWIDTH 702 0
DWIDTH 7 0
BBX 8 10 -1 0
BITMAP
00000350
00004EC0
0000BDF1
0001CF50
002EFF50
009FBF80
02FD3FD6
08FEFFF8
1EC46AF4
1E600CC1
ENDCHAR
STARTCHAR AE
ENCODING 198
SWIDTH 1153 0
DWIDTH 12 0
BBX 13 9 -1 -1
BITMAP
00000100000210
00006F749DFFA0
001DFF8FFEB720
009FBF9BF77100
03FC3FDEFFF700
0CEFFFFF742000
5F666EFFABDD10
7D004FAEFFD800
00000100100000
ENDCHAR
STARTCHAR Ccedilla
ENCODING 199
SWIDTH 611 0
DWIDTH 6 0
BBX 6 12 0 -4
BITMAP
000020
002AFA
07EFF8
7FF810
EE3000
E80000
9FDBB4
08FFE6
08D100
039D10
2DEC10
011000
ENDCHAR
STARTCHAR Egrave
ENCODING 200
SWIDTH 626 0
DWIDTH 6 0
BBX 7 12 0 -1
BITMAP
00130000
007F5000
001AF300
00006400
06ADFF60
4FFEA610
0ED76000
4FFFE300
BF541000
DEABEA00
7FFEC500
00100000
ENDCHAR
STARTCHAR Eacute
ENCODING 201
SWIDTH 626 0
DWIDTH 6 0
BBX 7 12 0 -1
BITMAP
00002300
0002EB00
000DC200
00071200
06ADFF60
4FFEA610
0ED76000
4FFFE300
BF541000
DEABEA00
7FFEC500
00100000
ENDCHAR
STARTCHAR Ecircumflex
ENCODING 202
SWIDTH 626 0
DWIDTH 6 0
BBX 7 12 0 -1
BITMAP
00078000
009EDB00
00932A00
00001200
06ADFF60
4FFEA610
0ED76000
4FFFE300
BF541000
DEABEA00
7FFEC500
00100000
ENDCHAR
STARTCHAR Edieresis
ENCODING 203
SWIDTH 626 0
DWIDTH 6 0
BBX 7 11 0 -1
BITMAP
00211400
00E94F40
00311500
06ADFF60
4FFEA610
0ED76000
4FFFE300
BF541000
DEABEA00
7FFEC500
00100000
ENDCHAR
STARTCHAR Igrave
ENCODING 204
SWIDTH 515 0
DWIDTH 5 0
BBX 8 13 -1 -1
BITMAP
00031000
000CD200
0002DD00
00001600
00023420
00DFFFF4
0059F730
0007F100
000CB000
003F7000
27CFB200
3FDCA300
01000000
ENDCHAR
STARTCHAR Iacute
ENCODING 205
SWIDTH 515 0
DWIDTH 5 0
BBX 8 13 -1 -1
BITMAP
00000040
000008F4
00006F70
00004400
00023420
00DFFFF4
0059F730
0007F100
000CB000
003F7000
27CFB200
3FDCA300
01000000
ENDCHAR
STARTCHAR Icircumflex
ENCODING 206
SWIDTH 515 0
DWIDTH 5 0
BBX 8 12 -1 -1
BITMAP
00005910
0007ECC1
000841A1
00023420
00DFFFF4
0059F730
0007F100
000CB000
003F7000
27CFB200
3FDCA300
01000000
ENDCHAR
STARTCHAR Idieresis
ENCODING 207
SWIDTH 515 0
DWIDTH 5 0
BBX 8 11 -1 -1
BITMAP
00022040
000BC1F7
00055450
00DFFFF4
0059F730
0007F100
000CB000
003F7000
27CFB200
3FDCA300
01000000
ENDCHAR
STARTCHAR Eth
ENCODING 208
SWIDTH 656 0
DWIDTH 7 0
BBX 8 8 -1 0
BITMAP
00200000
009D8100
00BCED30
05CC38D1
1FFF81E5
04EA7EE2
02FFFC30
01EB5000
ENDCHAR
STARTCHAR Ntilde
ENCODING 209
SWIDTH 684 0
DWIDTH 7 0
BBX 9 10 -1 0
BITMAP
0000372430
0002EDEF30
0003417300
000E80AB00
006FD0EE00
00DFA2F900
06FF97F600
0DFFDFF300
1FE4FFC000
09805A2000
ENDCHAR
STARTCHAR Ograve
ENCODING 210
SWIDTH 744 0
DWIDTH 7 0
BBX 8 12 0 -1
BITMAP
00004000
0003F900
00006F70
00004440
0009FB00
01BFFD00
0BFA7F50
6F900AC0
CD001BF1
CEABFFC0
4EFFC600
00100000
ENDCHAR
STARTCHAR Oacute
ENCODING 211
SWIDTH 744 0
DWIDTH 7 0
BBX 8 12 0 -1
BITMAP
00001300
0002DD00
000CD300
00065100
0009FB00
01BFFD00
0BFA7F50
6F900AC0
CD001BF1
CEABFFC0
4EFFC600
00100000
ENDCHAR
STARTCHAR Ocircumflex
ENCODING 212
SWIDTH 744 0
DWIDTH 7 0
BBX 8 12 0 -1
BITMAP
00008600
001BCE80
000A1390
00004100
0009FB00
01BFFD00
0BFA7F50
6F900AC0
CD001BF1
CEABFFC0
4EFFC600
00100000
ENDCHAR
STARTCHAR Otilde
ENCODING 213
SWIDTH 744 0
DWIDTH 7 0
BBX 8 11 0 -1
BITMAP
00037243
002EDEF3
00245730
0009FB00
01BFFD00
0BFA7F50
6F900AC0
CD001BF1
CEABFFC0
4EFFC600
00100000
ENDCHAR
STARTCHAR Odieresis
ENCODING 214
SWIDTH 744 0
DWIDTH 7 0
BBX 8 11 0 -1
BITMAP
00030220
003F59E0
00044220
0009FB00
01BFFD00
0BFA7F50
6F900AC0
CD001BF1
CEABFFC0
4EFFC600
00100000
ENDCHAR
STARTCHAR multiply
ENCODING 215
SWIDTH 490 0
DWIDTH 5 0
BBX 5 6 0 0
BITMAP
110000
5D29B0
1CFC30
2DF300
CA9C00
B11A00
ENDCHAR
STARTCHAR Oslash
ENCODING 216
SWIDTH 744 0
DWIDTH 7 0
BBX 8 10 0 -2
BITMAP
00004130
0009FDF0
01BFFFC0
0BFAFF60
6F9AECC0
CD8F7BF1
CEFFFFC0
4FFFC600
0F800000
03100000
ENDCHAR
STARTCHAR Ugrave
ENCODING 217
SWIDTH 695 0
DWIDTH 7 0
BBX 8 11 0 0
BITMAP
00310000
00EC1000
003EC000
00016010
040003C0
3F2007F2
5F600CF1
7F306FA0
7F79FD20
3FFFE300
0AEA2000
ENDCHAR
STARTCHAR Uacute
ENCODING 218
SWIDTH 695 0
DWIDTH 7 0
BBX 8 11 0 0
BITMAP
00000400
00008F40
0006F700
00044010
040003C0
3F2007F2
5F600CF1
7F306FA0
7F79FD20
3FFFE300
0AEA2000
ENDCHAR
STARTCHAR Ucircumflex
ENCODING 219
SWIDTH 695 0
DWIDTH 7 0
BBX 8 11 0 0
BITMAP
00059100
007ECC10
00841A10
00000010
040003C0
3F2007F2
5F600CF1
7F306FA0
7F79FD20
3FFFE300
0AEA2000
ENDCHAR
STARTCHAR Udieresis
ENCODING 220
SWIDTH 695 0
DWIDTH 7 0
BBX 8 10 0 0
BITMAP
00220400
00CB2F50
00310310
040003C0
3F2007F2
5F600CF1
7F306FA0
7F79FD20
3FFFE300
0AEA2000
ENDCHAR
STARTCHAR Yacute
ENCODING 221
SWIDTH 493 0
DWIDTH 5 0
BBX 6 13 0 -1
BITMAP
000022
0003EA
001EC1
001600
110022
6E23ED
4F6DF6
1FEF80
0AFD00
0BF400
4FA000
7F2000
030000
ENDCHAR
STARTCHAR Thorn
ENCODING 222
SWIDTH 680 0
DWIDTH 7 0
BBX 7 8 0 0
BITMAP
01100000
0B700000
1FFEC810
5FB7AFA0
8F43CFA0
AFDFE810
AFB51000
5E000000
ENDCHAR
STARTCHAR germandbls
ENCODING 223
SWIDTH 931 0
DWIDTH 9 0
BBX 11 7 0 -1
BITMAP
05AEF76BEE20
BFD78FFA7720
AFF72DFE3000
003E1017B000
14BE126D9000
7FC30CF91000
120001100000
ENDCHAR
STARTCHAR agrave
ENCODING 224
SWIDTH 581 0
DWIDTH 6 0
BBX 7 11 -1 -1
BITMAP
00022000
000BE300
0001CE10
00001700
0003C300
007FF600
01ECC900
07FADF90
0DACBF30
1E308D10
01000100
ENDCHAR
STARTCHAR aacute
ENCODING 225
SWIDTH 581 0
DWIDTH 6 0
BBX 7 11 -1 -1
BITMAP
00000400
0000BF10
0009E500
00052000
0003C300
007FF600
01ECC900
07FADF90
0DACBF30
1E308D10
01000100
ENDCHAR
STARTCHAR acircumflex
ENCODING 226
SWIDTH 581 0
DWIDTH 6 0
BBX 7 10 -1 -1
BITMAP
0002A300
003ECE40
00390750
0003C300
007FF600
01ECC900
07FADF90
0DACBF30
1E308D10
01000100
ENDCHAR
STARTCHAR atilde
ENCODING 227
SWIDTH 581 0
DWIDTH 6 0
BBX 8 10 -1 -1
BITMAP
00047152
004FEEE1
00332620
0003C300
007FF600
01ECC900
07FADF90
0DACBF30
1E308D10
01000100
ENDCHAR
STARTCHAR adieresis
ENCODING 228
SWIDTH 581 0
DWIDTH 6 0
BBX 7 10 -1 -1
BITMAP
00030220
003F58E0
00040120
0003C300
007FF600
01ECC900
07FADF90
0DACBF30
1E308D10
01000100
ENDCHAR
STARTCHAR aring
ENCODING 229
SWIDTH 581 0
DWIDTH 6 0
BBX 7 10 -1 -1
BITMAP
00000200
00009D00
0006DE30
0007FB10
007FF600
01ECC900
07FADF90
0DACBF30
1E308D10
01000100
ENDCHAR
STARTCHAR ae
ENCODING 230
SWIDTH 948 0
DWIDTH 9 0
BBX 11 7 -1 -1
BITMAP
0002C548BD80
006FF9FEB720
01EBD9DDA500
0AF9EFFCB500
4F9BDFE56810
8B01ECFFFB10
000010110000
ENDCHAR
STARTCHAR ccedilla
ENCODING 231
SWIDTH 513 0
DWIDTH 5 0
BBX 5 9 0 -3
BITMAP
004C80
1AFF80
AF9100
F70000
CB7520
2CFF80
09B100
03BA00
2CC500
ENDCHAR
STARTCHAR egrave
ENCODING 232
SWIDTH 521 0
DWIDTH 5 0
BBX 6 11 0 -1
BITMAP
022000
0BE300
01CE10
001700
059CE4
5FEA61
2FCA20
8EBA20
DB5760
AFFE80
021000
ENDCHAR
STARTCHAR eacute
ENCODING 233
SWIDTH 521 0
DWIDTH 5 0
BBX 6 11 0 -1
BITMAP
000140
001CE0
00BE40
006200
059CE4
5FEA61
2FCA20
8EBA20
DB5760
AFFE80
021000
ENDCHAR
STARTCHAR ecircumflex
ENCODING 234
SWIDTH 521 0
DWIDTH 5 0
BBX 6 10 0 -1
BITMAP
001940
02DCF6
02A067
059CE4
5FEA61
2FCA20
8EBA20
DB5760
AFFE80
021000
ENDCHAR
STARTCHAR edieresis
ENCODING 235
SWIDTH 521 0
DWIDTH 5 0
BBX 6 10 0 -1
BITMAP
003022
03F58E
004012
059CE4
5FEA61
2FCA20
8EBA20
DB5760
AFFE80
021000
ENDCHAR
STARTCHAR igrave
ENCODING 236
SWIDTH 320 0
DWIDTH 3 0
BBX 4 11 0 -1
BITMAP
0400
2FA0
05F8
0035
0850
0E90
2F60
5F20
6F00
3F10
0100
ENDCHAR
STARTCHAR iacute
ENCODING 237
SWIDTH 320 0
DWIDTH 3 0
BBX 6 11 0 -1
BITMAP
000040
000AF2
008F60
004300
085000
0E9000
2F6000
5F2000
6F0000
3F1000
010000
ENDCHAR
STARTCHAR icircumflex
ENCODING 238
SWIDTH 320 0
DWIDTH 3 0
BBX 5 10 0 -1
BITMAP
03A200
4ECE30
480840
085000
0E9000
2F6000
5F2000
6F0000
3F1000
010000
ENDCHAR
STARTCHAR idieresis
ENCODING 239
SWIDTH 320 0
DWIDTH 3 0
BBX 5 10 0 -1
BITMAP
120310
9E0E80
220200
085000
0E9000
2F6000
5F2000
6F0000
3F1000
010000
ENDCHAR
STARTCHAR eth
ENCODING 240
SWIDTH 541 0
DWIDTH 5 0
BBX 7 7 -1 -1
BITMAP
00D81000
01FBE400
29F93D10
2CF76F30
05FDF700
05E92000
00100000
ENDCHAR
STARTCHAR ntilde
ENCODING 241
SWIDTH 564 0
DWIDTH 6 0
BBX 8 9 -1 0
BITMAP
00006516
0008DFEA
00042461
004B1770
00BF3CB0
03FF1F70
0AFF7F40
1FCDFE10
0C53C400
ENDCHAR
STARTCHAR ograve
ENCODING 242
SWIDTH 628 0
DWIDTH 6 0
BBX 6 11 0 -1
BITMAP
000400
005F80
0007F5
000043
002DB0
04EFE0
2EC3D6
AD107C
DA58EC
7FFE92
012000
ENDCHAR
STARTCHAR oacute
ENCODING 243
SWIDTH 628 0
DWIDTH 6 0
BBX 6 11 0 -1
BITMAP
000040
0008F4
006F70
004400
002DB0
04EFE0
2EC3D6
AD107C
DA58EC
7FFE92
012000
ENDCHAR
STARTCHAR ocircumflex
ENCODING 244
SWIDTH 628 0
DWIDTH 6 0
BBX 7 10 0 -1
BITMAP
00059100
007ECC10
00851A10
002DB000
04EFE000
2EC3D600
AD107C00
DA58EC00
7FFE9200
01200000
ENDCHAR
STARTCHAR otilde
ENCODING 245
SWIDTH 628 0
DWIDTH 6 0
BBX 7 10 0 -1
BITMAP
00065160
008DFEA0
00424610
002DB000
04EFE000
2EC3D600
AD107C00
DA58EC00
7FFE9200
01200000
ENDCHAR
STARTCHAR odieresis
ENCODING 246
SWIDTH 628 0
DWIDTH 6 0
BBX 7 10 0 -1
BITMAP
00220400
00BC1F70
00320200
002DB000
04EFE000
2EC3D600
AD107C00
DA58EC00
7FFE9200
01200000
ENDCHAR
STARTCHAR divide
ENCODING 247
SWIDTH 559 0
DWIDTH 6 0
BBX 6 7 0 -1
BITMAP
007700
00AA00
478850
CECCA1
048000
08D000
001000
ENDCHAR
STARTCHAR oslash
ENCODING 248
SWIDTH 632 0
DWIDTH 6 0
BBX 6 8 0 -2
BITMAP
002DCC
03EFFB
2ECCF6
AD8E8C
DCFCED
7FFFA2
2F4000
020000
ENDCHAR
STARTCHAR ugrave
ENCODING 249
SWIDTH 584 0
DWIDTH 6 0
BBX 7 10 0 0
BITMAP
00400000
02FA0000
005F8000
00035000
02001A00
4D004F10
6F10AE00
7E07F700
6FEF9000
1DE80000
ENDCHAR
STARTCHAR uacute
ENCODING 250
SWIDTH 584 0
DWIDTH 6 0
BBX 7 10 0 0
BITMAP
00002200
0003EA00
001EC100
00160000
02001A00
4D004F10
6F10AE00
7E07F700
6FEF9000
1DE80000
ENDCHAR
STARTCHAR ucircumflex
ENCODING 251
SWIDTH 584 0
DWIDTH 6 0
BBX 7 9 0 0
BITMAP
00195000
01CCF700
01A14800
02001A00
4D004F10
6F10AE00
7E07F700
6FEF9000
1DE80000
ENDCHAR
STARTCHAR udieresis
ENCODING 252
SWIDTH 584 0
DWIDTH 6 0
BBX 7 9 0 0
BITMAP
00302200
03F58E00
00401200
02001A00
4D004F10
6F10AE00
7E07F700
6FEF9000
1DE80000
ENDCHAR
STARTCHAR yacute
ENCODING 253
SWIDTH 400 0
DWIDTH 4 0
BBX 6 11 0 -1
BITMAP
000040
0007F5
005F80
003500
6A08D0
5F6F80
2FFA00
0BE200
2F7000
7D0000
120000
ENDCHAR
STARTCHAR thorn
ENCODING 254
SWIDTH 579 0
DWIDTH 6 0
BBX 6 7 0 0
BITMAP
010000
0D2000
3FFEC3
7F44FC
AE8EE5
AFC610
7B0000
ENDCHAR
STARTCHAR ydieresis
ENCODING 255
SWIDTH 400 0
DWIDTH 4 0
BBX 6 10 0 -1
BITMAP
012031
09E0E8
022020
6A08D0
5F6F80
2FFA00
0BE200
2F7000
7D0000
120000
ENDCHAR
STARTCHAR dotlessi
ENCODING 305
SWIDTH 320 0
DWIDTH 3 0
BBX 3 7 0 -1
BITMAP
0850
0E90
2F60
5F20
6F00
3F10
0100
ENDCHAR
STARTCHAR Lslash
ENCODING 321
SWIDTH 632 0
DWIDTH 6 0
BBX 8 9 -1 -1
BITMAP
00120000
006F5000
00BF2000
05FFC100
CFF92000
3DF10000
0DFCFFA0
08FEBAA1
00100000
ENDCHAR
STARTCHAR lslash
ENCODING 322
SWIDTH 533 0
DWIDTH 5 0
BBX 7 7 -1 -1
BITMAP
00990000
00E90000
29FF5000
DFD30000
1DC89600
0AFECC10
00200000
ENDCHAR
STARTCHAR OE
ENCODING 338
SWIDTH 1212 0
DWIDTH 12 0
BBX 13 9 0 -1
BITMAP
00004100001200
0009FB17AEFF40
01BFFD6FFE9600
0BFA7F7FC75000
6F900AFFFFE200
CD001BFE441000
CEABFFFDABE800
4EFFC6AFFEC400
00100001000000
ENDCHAR
STARTCHAR oe
ENCODING 339
SWIDTH 1010 0
DWIDTH 10 0
BBX 11 8 0 -1
BITMAP
000100000000
002DB169CE30
04EFE7FDA600
2EB3DAFBA100
AC007FEBA200
DA58EFA57500
7FFE9CFFE700
012000210000
ENDCHAR
STARTCHAR Scaron
ENCODING 352
SWIDTH 576 0
DWIDTH 6 0
BBX 7 12 0 -1
BITMAP
00630800
009EBD10
0008B200
00013300
05BFFF80
AFFA7860
CFFC2000
157CA000
0009E000
38DF8000
6FD60000
01000000
ENDCHAR
STARTCHAR scaron
ENCODING 353
SWIDTH 463 0
DWIDTH 5 0
BBX 6 11 0 -1
BITMAP
063080
09EBD1
008B20
000000
05AEF6
BFD775
AFF700
003E10
14BE10
7FC300
120000
ENDCHAR
STARTCHAR Ydieresis
ENCODING 376
SWIDTH 493 0
DWIDTH 5 0
BBX 6 12 0 -1
BITMAP
003022
03F58E
004012
110022
6E23ED
4F6DF6
1FEF80
0AFD00
0BF400
4FA000
7F2000
030000
ENDCHAR
STARTCHAR Zcaron
ENCODING 381
SWIDTH 664 0
DWIDTH 7 0
BBX 9 12 -1 -1
BITMAP
0000721800
0000BDBC10
000009A100
0002211000
008FFFFB00
00298FFB00
0002CF9000
007FF80000
0AFD302000
1FF8AEE200
0CFFEB4000
0154000000
ENDCHAR
STARTCHAR zcaron
ENCODING 382
SWIDTH 547 0
DWIDTH 5 0
BBX 7 11 0 -1
BITMAP
00630800
009EBD10
0008B200
00000000
0AEDD700
048DF800
01AF7000
5EE50000
ED58A100
EFFD8000
25200000
ENDCHAR
STARTCHAR circumflex
ENCODING 710
SWIDTH 754 0
DWIDTH 8 0
BBX 5 3 2 5
BITMAP
04A200
5FCD20
660930
ENDCHAR
STARTCHAR caron
ENCODING 711
SWIDTH 754 0
DWIDTH 8 0
BBX 5 3 2 5
BITMAP
440720
6FAE30
06C300
ENDCHAR
STARTCHAR breve
ENCODING 728
SWIDTH 754 0
DWIDTH 8 0
BBX 5 3 2 5
BITMAP
440720
7FCF40
036200
ENDCHAR
STARTCHAR dotaccent
ENCODING 729
SWIDTH 754 0
DWIDTH 8 0
BBX 3 3 3 5
BITMAP
1300
6F20
1300
ENDCHAR
STARTCHAR ring
ENCODING 730
SWIDTH 754 0
DWIDTH 8 0
BBX 3 4 3 5
BITMAP
0100
2D50
DCB0
DE70
ENDCHAR
STARTCHAR ogonek
ENCODING 731
SWIDTH 754 0
DWIDTH 8 0
BBX 4 4 3 -3
BITMAP
3000
E000
CA74
18A5
ENDCHAR
STARTCHAR tilde
ENCODING 732
SWIDTH 754 0
DWIDTH 8 0
BBX 5 3 2 5
BITMAP
174250
BDFE70
515500
ENDCHAR
STARTCHAR hungarumlaut
ENCODING 733
SWIDTH 754 0
DWIDTH 8 0
BBX 7 4 1 4
BITMAP
00310400
06F7BF10
3F9AE400
25052000
ENDCHAR
STARTCHAR endash
ENCODING 8211
SWIDTH 588 0
DWIDTH 6 0
BBX 6 3 0 1
BITMAP
245630
CFFED2
110000
ENDCHAR
STARTCHAR emdash
ENCODING 8212
SWIDTH 878 0
DWIDTH 9 0
BBX 9 3 0 1
BITMAP
3566765200
9FEDDDDB10
0100000000
ENDCHAR
STARTCHAR quoteleft
ENCODING 8216
SWIDTH 203 0
DWIDTH 2 0
BBX 4 4 0 4
BITMAP
0360
0CD1
1F60
0610
ENDCHAR
STARTCHAR quoteright
ENCODING 8217
SWIDTH 199 0
DWIDTH 2 0
BBX 3 4 0 4
BITMAP
0350
09F0
1E90
1710
ENDCHAR
STARTCHAR quotesinglbase
ENCODING 8218
SWIDTH 204 0
DWIDTH 2 0
BBX 3 4 -1 -2
BITMAP
1400
6F30
BD00
9400
ENDCHAR
STARTCHAR quotedblleft
ENCODING 8220
SWIDTH 410 0
DWIDTH 4 0
BBX 6 4 0 4
BITMAP
045371
0DCBE1
1F6F70
092520
ENDCHAR
STARTCHAR quotedblright
ENCODING 8221
SWIDTH 425 0
DWIDTH 4 0
BBX 6 4 0 4
BITMAP
035171
09F6F3
1EADC0
171710
ENDCHAR
STARTCHAR quotedblbase
ENCODING 8222
SWIDTH 430 0
DWIDTH 4 0
BBX 5 4 -1 -2
BITMAP
140410
6F4F70
BD9E20
948500
ENDCHAR
STARTCHAR bullet
ENCODING 8226
SWIDTH 299 0
DWIDTH 3 0
BBX 3 4 0 1
BITMAP
0100
7E30
9F40
1100
ENDCHAR
STARTCHAR ellipsis
ENCODING 8230
SWIDTH 768 0
DWIDTH 8 0
BBX 8 3 -1 -1
BITMAP
06226044
2F57F1BB
03002021
ENDCHAR
STARTCHAR perthousand
ENCODING 8240
SWIDTH 889 0
DWIDTH 9 0
BBX 9 8 0 0
BITMAP
0010000000
07D0077000
5DE47E3000
5FC9E30000
006E410110
07D6E63D80
5E2DCCCCE0
890AB59C60
ENDCHAR
STARTCHAR guilsinglleft
ENCODING 8249
SWIDTH 322 0
DWIDTH 3 0
BBX 3 6 0 -1
BITMAP
0020
07D0
BD30
D900
2C50
0010
ENDCHAR
STARTCHAR guilsinglright
ENCODING 8250
SWIDTH 341 0
DWIDTH 3 0
BBX 4 6 -1 -1
BITMAP
0200
09A1
01CA
07E7
2D30
0100
ENDCHAR
STARTCHAR fraction
ENCODING 8260
SWIDTH 541 0
DWIDTH 5 0
BBX 6 9 0 -1
BITMAP
000011
0001D4
000AD1
007E20
04F500
3E7000
BB0000
D60000
100000
ENDCHAR
STARTCHAR Euro
ENCODING 8364
SWIDTH 565 0
DWIDTH 6 0
BBX 7 6 -1 0
BITMAP
00019E20
004EFB20
02EE6000
1FFFE700
03EB8700
004BDB10
ENDCHAR
STARTCHAR Delta
ENCODING 8710
SWIDTH 403 0
DWIDTH 4 0
BBX 7 7 -1 -1
BITMAP
01CEFD20
007D9300
001F4000
006E0000
03CC2000
4FED7000
01000000
ENDCHAR
STARTCHAR minus
ENCODING 8722
SWIDTH 548 0
DWIDTH 5 0
BBX 5 3 0 1
BITMAP
356620
EFEEB0
210000
ENDCHAR
STARTCHAR approxequal
ENCODING 8776
SWIDTH 323 0
DWIDTH 3 0
BBX 3 8 0 0
BITMAP
0110
0A80
0EC0
3F90
7F50
9F20
8F20
4F20
ENDCHAR
STARTCHAR fi
ENCODING 64257
SWIDTH 810 0
DWIDTH 8 0
BBX 9 8 -1 -1
BITMAP
0000010000
015AEF9940
07FD642F80
01E7203F40
2FFFF56F10
0CB4107E00
0B50004E00
0100000100
ENDCHAR
STARTCHAR fl
ENCODING 64258
SWIDTH 1012 0
DWIDTH 10 0
BBX 11 8 -1 -1
BITMAP
000001000000
015AEF9C7000
07FD644F7000
01E7208F1000
2FFFF5DA0000
0CB411FA8940
0B5000CFDCB0
010000020000
ENDCHAR
STARTCHAR .notdef
ENCODING -1
SWIDTH 370 0
DWIDTH 4 0
BBX 1 1 0 0
BITMAP
00
ENDCHAR
ENDFONT
